#!OML:ASF E:\Style4\Style4.ASF
:FULLY-SPECIFIED
:DEGREES
1251
root 0.14522 16.9466 -3.02072 3.41613 -2.0688 5.02041
lowerback 23.2288 6.99538 8.00767
upperback 9.57569 10.5017 -9.93178
thorax 0.988382 6.14003 -17.2985
lowerneck 9.28446 -10.8751 4.67032
upperneck 8.15577 -14.5779 16.3286
head 1.83446 -6.95864 4.30202
rclavicle 1.25831e-013 -5.96354e-014
rhumerus 8.27045 55.8364 -83.7571
rradius 120.197
rwrist -69.3926
rhand 10.7204 -4.88727
rfingers 7.12502
rthumb 35.8093 -31.2504
lclavicle 1.25831e-013 -5.96354e-014
lhumerus 84.8807 10.9087 44.4399
lradius 128.615
lwrist 54.6044
lhand -5.82442 23.2688
lfingers 7.12502
lthumb 20.0011 52.2594
rfemur -34.7318 -0.278712 14.0914
rtibia 53.4274
rfoot -21.2649 -11.2818
rtoes -8.96285
lfemur -31.2437 3.64754 -25.1307
ltibia 48.3114
lfoot -20.9719 6.09249
ltoes -10.1407
1252
root 0.149561 16.9416 -3.01416 3.36144 -2.19898 5.01685
lowerback 23.3517 7.02605 8.18448
upperback 9.60656 10.5821 -10.2257
thorax 1.0749 6.22272 -17.7788
lowerneck 9.44964 -10.9882 5.41735
upperneck 7.6877 -14.5701 16.5381
head 1.63504 -6.98087 4.28396
rclavicle -1.75527e-013 1.24042e-013
rhumerus 7.43175 54.9785 -84.7719
rradius 120.402
rwrist -69.3163
rhand 10.9648 -4.50783
rfingers 7.12502
rthumb 36.0408 -30.8143
lclavicle -1.75527e-013 1.24042e-013
lhumerus 85.2897 10.0505 44.7043
lradius 130.154
lwrist 54.8674
lhand -5.57939 23.5095
lfingers 7.12502
lthumb 20.2366 52.4753
rfemur -34.7383 -0.231908 14.0915
rtibia 53.5419
rfoot -21.2925 -11.2438
rtoes -9.15278
lfemur -31.2122 3.74447 -25.1464
ltibia 48.4301
lfoot -21.0106 6.12601
ltoes -10.136
1253
root 0.153868 16.9383 -3.00718 3.28418 -2.30728 5.15299
lowerback 23.4469 7.04341 8.1952
upperback 9.69802 10.6102 -10.4903
thorax 1.18739 6.27448 -18.1143
lowerneck 9.56588 -11.0718 5.99802
upperneck 7.2031 -14.5383 16.7081
head 1.44416 -6.99813 4.27576
rclavicle -5.64548e-014 -1.39149e-014
rhumerus 6.79164 54.1881 -85.5369
rradius 120.578
rwrist -69.2668
rhand 11.3544 -4.31259
rfingers 7.12502
rthumb 36.4098 -30.5274
lclavicle -5.64548e-014 -1.39149e-014
lhumerus 85.4901 9.10869 44.9347
lradius 131.656
lwrist 54.7386
lhand -5.28481 23.7831
lfingers 7.12502
lthumb 20.5197 52.7187
rfemur -34.6948 -0.210558 13.9202
rtibia 53.636
rfoot -21.3599 -11.1411
rtoes -9.07124
lfemur -31.1207 3.83696 -25.329
ltibia 48.5159
lfoot -21.0545 6.17498
ltoes -10.1595
1254
root 0.15616 16.9351 -3.0043 3.22821 -2.36837 5.18775
lowerback 23.577 7.02591 8.25773
upperback 9.77034 10.6038 -10.7088
thorax 1.25143 6.30248 -18.4285
lowerneck 9.68457 -11.1587 6.60547
upperneck 6.69425 -14.4978 16.8371
head 1.24069 -7.01535 4.25379
rclavicle 1.12512e-013 -2.98177e-014
rhumerus 6.19177 53.4529 -86.2696
rradius 120.757
rwrist -69.1589
rhand 11.7118 -4.29695
rfingers 7.12502
rthumb 36.748 -30.4261
lclavicle 1.12512e-013 -2.98177e-014
lhumerus 85.5974 8.09951 45.2404
lradius 133.157
lwrist 54.2797
lhand -5.02316 24.0894
lfingers 7.12502
lthumb 20.7712 52.9976
rfemur -34.6704 -0.189398 13.8753
rtibia 53.6977
rfoot -21.3868 -11.0795
rtoes -9.24201
lfemur -31.0739 3.90834 -25.3804
ltibia 48.5761
lfoot -21.1333 6.24491
ltoes -10.4908
1255
root 0.156198 16.9304 -3.0032 3.16409 -2.45161 5.19934
lowerback 23.7345 7.00669 8.27293
upperback 9.84282 10.5843 -10.882
thorax 1.28117 6.31468 -18.6627
lowerneck 9.85212 -11.2252 7.15785
upperneck 6.14927 -14.4175 16.9296
head 1.01694 -7.0221 4.23396
rclavicle -4.85035e-014 6.0033e-014
rhumerus 5.68924 52.8723 -86.8757
rradius 120.853
rwrist -69.0589
rhand 12.0894 -4.1148
rfingers 7.12502
rthumb 37.1053 -30.152
lclavicle -4.85035e-014 6.0033e-014
lhumerus 85.6359 7.23428 45.5631
lradius 134.528
lwrist 53.2792
lhand -4.93786 24.1061
lfingers 7.12502
lthumb 20.8531 53.0054
rfemur -34.6564 -0.127973 13.8745
rtibia 53.7457
rfoot -21.3609 -11.1315
rtoes -9.75893
lfemur -31.0134 3.95485 -25.3712
ltibia 48.5846
lfoot -21.2875 6.20318
ltoes -10.1663
1256
root 0.156632 16.9285 -3.00188 3.14299 -2.51411 5.17176
lowerback 23.8252 6.98391 8.34422
upperback 9.91706 10.5723 -11.0444
thorax 1.35595 6.33722 -18.9103
lowerneck 9.9571 -11.3405 8.03047
upperneck 5.5923 -14.3422 16.4326
head 0.920951 -7.03501 4.40832
rclavicle -7.23576e-014 8.11041e-014
rhumerus 5.13491 52.2851 -87.5291
rradius 120.91
rwrist -68.9351
rhand 12.5613 -3.91686
rfingers 7.12502
rthumb 37.5514 -29.8368
lclavicle -7.23576e-014 8.11041e-014
lhumerus 85.7008 6.52909 45.7214
lradius 135.729
lwrist 51.5786
lhand -5.07094 23.6109
lfingers 7.12502
lthumb 20.7253 52.5242
rfemur -34.6482 -0.0724491 13.91
rtibia 53.7472
rfoot -21.286 -11.2053
rtoes -10.0096
lfemur -30.9736 3.97369 -25.3237
ltibia 48.5558
lfoot -21.3585 6.12846
ltoes -9.62284
